:SAMPLES-PER-SECOND 30
:FULLY-SPECIFIED
:DEGREES
609
root  -67.3277 39.9891 -4.88191 -9.19812 -52.7504 4.76352
RightUpLeg  -15.3423 13.0112 -6.2715
RightLeg  18.712 3.47034 1.08823
RightFoot  -3.48036 -0.818033 11.2375
RightToes  -1.74624e-010 0 -3.6325e-017
Spine  7.85186 -2.23699 -2.48886
Spine1  5.3079 -1.70485 -3.87328
HEad  -18.7921 -4.42921 1.75657
LeftShoulder1  -0.223074 4.10088 -31.2244
LeftArm  1.82271 -4.72562 -48.4245
LeftForeArm  29.2633 -40.7619 -7.74725
LeftHand  -0.0701759 3.89685 4.05956
RightShoulder  -0.924011 -5.9916 30.553
RightArm  9.34541 -0.052847 48.787
RightForeArm  13.0735 19.6288 3.96992
RightHand  -0.240089 6.70837 -2.65059
LeftUpLeg  -0.0864167 3.89705 -6.34356
LeftLeg  16.4045 -9.02996 -2.9012
LeftFoot  -9.27566 -0.103532 8.84692
LeftToes  -3.96543e-010 8.93632e-011 -2.58531e-011
610
root  -67.8937 40.0094 -4.52704 -9.29089 -49.4619 4.85013
RightUpLeg  -14.3464 10.1283 -5.23651
RightLeg  14.4517 6.04541 1.18994
RightFoot  -0.106061 -0.973348 10.7438
RightToes  -1.74624e-010 0 -3.6325e-017
Spine  7.13098 -1.91531 -2.42081
Spine1  6.03999 -1.37509 -3.55721
HEad  -18.8336 -8.22305 1.33538
LeftShoulder1  -0.239918 4.1437 -31.3762
LeftArm  2.29417 -4.88701 -49.4638
LeftForeArm  32.563 -43.932 -8.56161
LeftHand  -0.0849648 3.23615 3.81125
RightShoulder  -0.900728 -5.93932 30.3862
RightArm  10.4278 -0.444399 50.466
RightForeArm  12.4539 16.8039 4.34037
RightHand  -0.244206 6.28918 -2.76067
LeftUpLeg  1.38962 3.11873 -6.64771
LeftLeg  15.9268 -11.3455 -3.22896
LeftFoot  -9.47568 -0.0941987 9.27397
LeftToes  -3.96543e-010 8.93632e-011 -2.58531e-011
611
root  -68.4044 40.1774 -4.13411 -8.8327 -46.3058 4.19107
RightUpLeg  -13.522 3.97767 -3.03155
RightLeg  13.7461 7.49324 0.810714
RightFoot  5.39219 -0.255781 1.67251
RightToes  -1.74624e-010 0 -3.6325e-017
Spine  6.23605 -1.62138 -0.939468
Spine1  6.66842 -0.97525 -3.33747
HEad  -17.6714 -12.0488 0.539606
LeftShoulder1  -0.205432 4.04718 -31.5683
LeftArm  2.38329 -3.47634 -49.6852
LeftForeArm  35.0023 -46.6212 -9.33256
LeftHand  -0.103677 2.39915 3.59244
RightShoulder  -0.866128 -5.85643 30.1994
RightArm  11.8473 -0.494396 51.2963
RightForeArm  12.8302 13.9736 5.2368
RightHand  -0.165831 5.22514 -2.11593
LeftUpLeg  3.45509 1.91996 -6.54538
LeftLeg  14.0681 -12.8716 -2.9478
LeftFoot  -9.01642 -0.129526 8.95495
LeftToes  -3.96543e-010 8.93632e-011 -2.58531e-011
612
root  -68.9554 40.2111 -3.72819 -8.5481 -43.7157 3.65192
RightUpLeg  -12.3182 1.37095 -2.07718
RightLeg  14.6093 1.54796 -0.51571
RightFoot  3.97543 0.279909 -1.88403
RightToes  -1.74624e-010 0 -3.6325e-017
Spine  5.48195 -1.33626 0.682394
Spine1  6.88936 -0.508223 -3.57889
HEad  -16.2549 -15.9477 -0.335834
LeftShoulder1  -0.382792 4.50074 -32.3018
LeftArm  3.14673 -2.74432 -48.6308
LeftForeArm  34.0038 -47.2173 -9.63118
LeftHand  -0.124204 1.84634 3.82033
RightShoulder  -0.82017 -5.75699 29.7762
RightArm  14.0691 -0.343296 51.9082
RightForeArm  15.3694 12.0966 6.29525
RightHand  -0.0837411 4.88364 -1.25058
LeftUpLeg  4.71492 0.929289 -6.22662
LeftLeg  14.1795 -13.7032 -3.12865
LeftFoot  -9.87296 -0.0441885 8.12301
LeftToes  -3.96543e-010 8.93632e-011 -2.58531e-011
613
root  -69.472 40.2151 -3.23951 -8.91864 -43.1288 3.6915
RightUpLeg  -11.2719 1.12157 -1.9026
RightLeg  15.8086 0.786983 -0.823361
RightFoot  2.40518 0.461204 -3.65575
RightToes  -1.74624e-010 0 -3.6325e-017
Spine  5.03037 -0.640674 3.91937
Spine1  6.83574 1.00602 -6.01091
HEad  -15.2094 -19.8304 -0.585308
LeftShoulder1  -0.483221 4.75607 -32.4211
LeftArm  2.5025 -0.904748 -47.2912
LeftForeArm  33.3672 -46.5831 -9.44014
LeftHand  -0.122727 1.73349 3.66009
RightShoulder  -0.876629 -5.88766 30.17
RightArm  17.5769 -0.0921611 51.6251
RightForeArm  18.7213 12.0633 7.04539
RightHand  -0.0874587 4.59107 -1.30157
LeftUpLeg  5.98048 0.228451 -6.36252
LeftLeg  14.628 -13.347 -3.31186
LeftFoot  -9.92859 -0.047136 8.61423
LeftToes  -3.96543e-010 8.93632e-011 -2.58531e-011
614
root  -69.9659 40.152 -2.71411 -9.3222 -43.384 3.3241
RightUpLeg  -10.1063 -0.167629 -2.06131
RightLeg  17.4611 2.58762 0.336637
RightFoot  -0.148761 0.262466 -2.66578
RightToes  -1.74624e-010 0 -3.6325e-017
Spine  4.63488 0.0495903 7.21906
Spine1  7.23998 2.39142 -8.2432
HEad  -14.6968 -22.7495 -1.42628
LeftShoulder1  -0.568119 4.95249 -33.081
LeftArm  1.28117 0.720514 -45.3277
LeftForeArm  31.3558 -43.9602 -8.65145
LeftHand  -0.128636 2.06369 4.20828
RightShoulder  -0.933228 -6.02035 30.4932
RightArm  21.4691 0.923375 50.95
RightForeArm  20.5498 12.7069 7.4729
RightHand  -0.0604505 4.01282 -1.01227
LeftUpLeg  6.44835 0.246191 -6.00406
LeftLeg  17.5523 -12.6785 -4.09307
LeftFoot  -10.8534 0.0311347 8.03962
LeftToes  -3.96543e-010 8.93632e-011 -2.58531e-011
